<svg width="1291" height="647" viewBox="0 0 1291 647" fill="none" xmlns="http://www.w3.org/2000/svg">
<ellipse cx="112.739" cy="614.291" rx="31.7389" ry="32.187" fill="#816EF4"/>
<ellipse cx="1274.25" cy="332.478" rx="16.4093" ry="16.641" fill="#48E587"/>
<path d="M332.383 10.6444C333.385 9.34891 334.999 8.6921 336.607 8.92518L353.849 11.4248C355.436 11.6548 356.776 12.7169 357.368 14.2141L363.883 30.6805C364.476 32.1777 364.232 33.8845 363.242 35.1631L352.486 49.0557C351.483 50.3512 349.869 51.008 348.262 50.7749L331.02 48.2753C329.433 48.0453 328.093 46.9831 327.501 45.486L320.985 29.0196C320.393 27.5224 320.637 25.8156 321.627 24.537L332.383 10.6444Z" fill="#806DF5"/>
<path d="M0 293.121C24.1425 286.235 74.2381 292.662 81.4808 373.457C54.3205 375.752 0 362.898 0 293.121Z" fill="#FFA318"/>
<path d="M1128.33 80.6036C1126.49 63.8604 1136 31.3413 1188.86 35.211C1187.43 53.4621 1173.31 88.0922 1128.33 80.6036Z" fill="#2FB8E3"/>
</svg>
